# Blender v3.1.2 OBJ File: 'cute_holder_2col.blend'
# www.blender.org
mtllib cute_holder_2col.mtl
o Cube
v 1.000000 2.295047 -1.000000
v 0.622275 0.234644 -0.622275
v 1.000000 2.295047 1.000000
v 0.622275 0.234644 0.622275
v -1.000000 2.295047 -1.000000
v -0.622275 0.234644 -0.622275
v -1.000000 2.295047 1.000000
v -0.622275 0.234644 0.622275
v -1.389904 0.035625 -1.389904
v -1.389904 0.035625 1.389904
v 1.389904 0.035625 -1.389904
v 1.389904 0.035625 1.389904
v 2.093576 3.227806 2.093576
v 2.076680 3.273653 2.076680
v -2.076680 3.273653 2.076680
v -2.093576 3.227806 2.093576
v 2.093576 3.227806 -2.093576
v 2.076680 3.273653 -2.076680
v -2.076680 3.273653 -2.076680
v -2.093576 3.227806 -2.093576
v 1.000000 2.453338 1.000000
v -1.000000 2.453338 1.000000
v 1.000000 2.453338 -1.000000
v -1.000000 2.453338 -1.000000
v -2.093576 3.386097 2.093576
v 2.093576 3.386097 2.093576
v 2.093576 3.386097 -2.093576
v -2.093576 3.386097 -2.093576
v 0.990653 2.285418 -0.990653
v 0.616459 0.244273 -0.616459
v 0.990653 2.285418 0.990653
v 0.616459 0.244273 0.616459
v -0.990653 2.285418 -0.990653
v -0.616459 0.244273 -0.616459
v -0.990653 2.285418 0.990653
v -0.616459 0.244273 0.616459
vt 0.375000 0.750000
vt 0.625000 0.750000
vt 0.625000 1.000000
vt 0.375000 1.000000
vt 0.375000 0.000000
vt 0.625000 0.000000
vt 0.625000 0.250000
vt 0.375000 0.250000
vt 0.375000 0.250000
vt 0.375000 0.000000
vt 0.375000 0.500000
vt 0.625000 0.500000
vt 0.625000 0.500000
vt 0.625000 0.500000
vt 0.625000 0.750000
vt 0.625000 0.750000
vt 0.628129 0.750000
vt 0.628129 0.750000
vt 0.871871 0.750000
vt 0.871871 0.750000
vt 0.875000 0.746871
vt 0.875000 0.746871
vt 0.875000 0.503129
vt 0.875000 0.503129
vt 0.125000 0.500000
vt 0.375000 0.500000
vt 0.375000 0.750000
vt 0.125000 0.750000
vt 0.375000 1.000000
vt 0.629113 0.745887
vt 0.870887 0.745887
vt 0.629113 0.504113
vt 0.870887 0.504113
vt 0.628129 0.500000
vt 0.871871 0.500000
vt 0.871871 0.500000
vt 0.628129 0.500000
vt 0.625000 0.500000
vt 0.625000 0.250000
vt 0.625000 0.250000
vt 0.625000 0.750000
vt 0.625000 0.000000
vt 0.625000 0.000000
vt 0.000000 0.000000
vt 0.000000 0.000000
vt 0.000000 0.000000
vt 0.000000 0.000000
vt 0.625000 1.000000
vt 0.625000 1.000000
vt 0.375000 0.750000
vt 0.625000 0.750000
vt 0.625000 1.000000
vt 0.375000 1.000000
vt 0.375000 0.000000
vt 0.625000 0.000000
vt 0.625000 0.250000
vt 0.375000 0.250000
vt 0.375000 0.500000
vt 0.625000 0.500000
vn 0.0000 -0.1803 0.9836
vn -0.9836 -0.1803 0.0000
vn -0.2510 0.9680 0.0000
vn 0.9836 -0.1803 0.0000
vn 0.0000 -0.1803 -0.9836
vn 1.0000 0.0000 0.0000
vn 0.0000 0.0000 1.0000
vn -1.0000 0.0000 0.0000
vn 0.0000 -1.0000 0.0000
vn 0.2510 0.9680 0.0000
vn 0.0000 0.9680 -0.2510
vn 0.0000 0.9680 0.2510
vn 0.0000 0.3458 0.9383
vn 0.9383 0.3458 0.0000
vn -0.9383 0.3458 0.0000
vn 0.0000 0.3458 -0.9383
vn 0.0000 0.0000 -1.0000
vn 0.0000 -0.7608 -0.6489
vn 0.6489 -0.7608 0.0000
vn -0.6489 -0.7608 0.0000
vn 0.0000 -0.7608 0.6489
vn 0.0000 0.6965 -0.7175
vn -0.7176 0.6965 0.0000
vn 0.7176 0.6965 0.0000
vn 0.0000 0.6965 0.7175
usemtl Material
s off
f 4/1/1 3/2/1 7/3/1 8/4/1
f 8/5/2 7/6/2 5/7/2 6/8/2
f 8/5/3 6/8/3 9/9/3 10/10/3
f 2/11/4 1/12/4 3/2/4 4/1/4
f 6/8/5 5/7/5 1/12/5 2/11/5
f 17/13/6 27/14/6 26/15/6 13/16/6
f 13/17/7 26/18/7 25/19/7 16/20/7
f 16/21/8 25/22/8 28/23/8 20/24/8
f 9/25/9 11/26/9 12/27/9 10/28/9
f 2/11/10 4/1/10 12/27/10 11/26/10
f 6/8/11 2/11/11 11/26/11 9/9/11
f 4/1/12 8/4/12 10/29/12 12/27/12
f 14/30/13 15/31/13 16/20/13 13/17/13
f 18/32/14 14/30/14 13/16/14 17/13/14
f 15/31/15 19/33/15 20/24/15 16/21/15
f 19/33/16 18/32/16 17/34/16 20/35/16
f 20/35/17 28/36/17 27/37/17 17/34/17
usemtl Mat2
f 23/38/18 24/39/18 28/40/18 27/14/18
f 21/41/19 23/38/19 27/14/19 26/15/19
f 24/39/20 22/42/20 25/43/20 28/40/20
f 23/44/9 21/45/9 22/46/9 24/47/9
f 22/48/21 21/41/21 26/15/21 25/49/21
f 32/50/1 31/51/1 35/52/1 36/53/1
f 36/54/2 35/55/2 33/56/2 34/57/2
f 30/58/4 29/59/4 31/51/4 32/50/4
f 34/57/5 33/56/5 29/59/5 30/58/5
f 3/2/22 31/51/22 35/52/22 7/3/22
f 1/12/23 29/59/23 31/51/23 3/2/23
f 7/3/24 35/52/24 33/56/24 5/7/24
f 5/7/25 33/56/25 29/59/25 1/12/25
