# Blender v3.1.2 OBJ File: 'cute_holder.blend'
# www.blender.org
mtllib cute_holder_1col.mtl
o Cube
v 1.000000 2.295047 -1.000000
v 0.622275 0.234644 -0.622275
v 1.000000 2.295047 1.000000
v 0.622275 0.234644 0.622275
v -1.000000 2.295047 -1.000000
v -0.622275 0.234644 -0.622275
v -1.000000 2.295047 1.000000
v -0.622275 0.234644 0.622275
v -1.389904 0.035625 -1.389904
v -1.389904 0.035625 1.389904
v 1.389904 0.035625 -1.389904
v 1.389904 0.035625 1.389904
v 2.093576 3.227806 2.093576
v 2.076680 3.273653 2.076680
v -2.076680 3.273653 2.076680
v -2.093576 3.227806 2.093576
v 2.093576 3.227806 -2.093576
v 2.076680 3.273653 -2.076680
v -2.076680 3.273653 -2.076680
v -2.093576 3.227806 -2.093576
vt 0.625000 0.500000
vt 0.625000 0.250000
vt 0.625000 0.250000
vt 0.625000 0.500000
vt 0.375000 0.750000
vt 0.625000 0.750000
vt 0.625000 1.000000
vt 0.375000 1.000000
vt 0.375000 0.000000
vt 0.625000 0.000000
vt 0.375000 0.250000
vt 0.375000 0.250000
vt 0.375000 0.000000
vt 0.375000 0.500000
vt 0.625000 0.750000
vt 0.625000 0.000000
vt 0.000000 0.000000
vt 0.000000 0.000000
vt 0.000000 0.000000
vt 0.000000 0.000000
vt 0.125000 0.500000
vt 0.375000 0.500000
vt 0.375000 0.750000
vt 0.125000 0.750000
vt 0.375000 1.000000
vt 0.629113 0.745887
vt 0.870887 0.745887
vt 0.871871 0.750000
vt 0.628129 0.750000
vt 0.629113 0.504113
vt 0.870887 0.504113
vt 0.875000 0.503129
vt 0.875000 0.746871
vt 0.628129 0.500000
vt 0.871871 0.500000
vt 0.625000 1.000000
vn 0.0000 -0.7608 -0.6489
vn 0.0000 -0.1803 0.9836
vn -0.9836 -0.1803 0.0000
vn -0.2510 0.9680 0.0000
vn 0.9836 -0.1803 0.0000
vn 0.0000 -0.1803 -0.9836
vn 0.6489 -0.7608 0.0000
vn -0.6489 -0.7608 0.0000
vn 0.0000 -1.0000 0.0000
vn 0.2510 0.9680 0.0000
vn 0.0000 0.9680 -0.2510
vn 0.0000 0.9680 0.2510
vn 0.0000 0.3458 0.9383
vn 0.9383 0.3458 0.0000
vn -0.9383 0.3458 0.0000
vn 0.0000 0.3458 -0.9383
vn 0.0000 -0.7608 0.6489
usemtl Material
s off
f 1/1/1 5/2/1 20/3/1 17/4/1
f 4/5/2 3/6/2 7/7/2 8/8/2
f 8/9/3 7/10/3 5/2/3 6/11/3
f 8/9/4 6/11/4 9/12/4 10/13/4
f 2/14/5 1/1/5 3/6/5 4/5/5
f 6/11/6 5/2/6 1/1/6 2/14/6
f 3/6/7 1/1/7 17/4/7 13/15/7
f 5/2/8 7/10/8 16/16/8 20/3/8
f 1/17/9 3/18/9 7/19/9 5/20/9
f 9/21/9 11/22/9 12/23/9 10/24/9
f 2/14/10 4/5/10 12/23/10 11/22/10
f 6/11/11 2/14/11 11/22/11 9/12/11
f 4/5/12 8/8/12 10/25/12 12/23/12
f 14/26/13 15/27/13 16/28/13 13/29/13
f 18/30/14 14/26/14 13/15/14 17/4/14
f 15/27/15 19/31/15 20/32/15 16/33/15
f 19/31/16 18/30/16 17/34/16 20/35/16
f 7/7/17 3/6/17 13/15/17 16/36/17
