# Blender v3.1.2 OBJ File: ''
# www.blender.org
mtllib pyramid.mtl
o Cube_Cube.001
v -1.000000 -0.020327 1.000000
v -1.000000 -0.020327 -1.000000
v 1.000000 -0.020327 1.000000
v 1.000000 -0.020327 -1.000000
v 0.000000 1.384756 0.000000
vt 0.125000 0.750000
vt 0.125000 0.500000
vt 0.250000 0.625000
vt 0.375000 0.500000
vt 0.375000 0.750000
vn 0.8147 -0.5798 0.0000
vn 0.0000 -0.5798 0.8147
vn 0.0000 1.0000 0.0000
vn 0.0000 -0.5798 -0.8147
vn -0.8147 -0.5798 0.0000
usemtl None
s off
f 1/1/1 2/2/1 5/3/1
f 2/2/2 4/4/2 5/3/2
f 2/2/3 1/1/3 3/5/3 4/4/3
f 3/5/4 1/1/4 5/3/4
f 4/4/5 3/5/5 5/3/5
